<svg xmlns:dc="http://purl.org/dc/elements/1.1/" xmlns:cc="http://creativecommons.org/ns#" xmlns:rdf="http://www.w3.org/1999/02/22-rdf-syntax-ns#" xmlns:svg="http://www.w3.org/2000/svg" xmlns="http://www.w3.org/2000/svg" xmlns:sodipodi="http://sodipodi.sourceforge.net/DTD/sodipodi-0.dtd" xmlns:inkscape="http://www.inkscape.org/namespaces/inkscape" width="100" height="100" viewBox="0 0 80 80" version="1.1" id="svg2" inkscape:version="0.48.2 r9819" sodipodi:docname="blank.svg">
  <metadata id="metadata10">
    <rdf:RDF>
      <cc:Work rdf:about="">
        <dc:format>image/svg+xml</dc:format>
        <dc:type rdf:resource="http://purl.org/dc/dcmitype/StillImage"/>
        <dc:title/>
      </cc:Work>
    </rdf:RDF>
  </metadata>
  <defs id="defs8">
    <inkscape:path-effect is_visible="true" id="path-effect5043" effect="spiro"/>
    <inkscape:path-effect is_visible="true" id="path-effect5065" effect="spiro"/>
    <marker inkscape:stockid="TriangleOutM" orient="auto" refY="0" refX="0" id="TriangleOutM" style="overflow:visible">
      <path inkscape:connector-curvature="0" id="path4281" d="m 5.77,0 -8.65,5 0,-10 8.65,5 z" style="fill-rule:evenodd;stroke:#000000;stroke-width:1pt;marker-start:none" transform="scale(0.4,0.4)"/>
    </marker>
    <marker inkscape:stockid="TriangleOutM" orient="auto" refY="0" refX="0" id="marker4230" style="overflow:visible">
      <path inkscape:connector-curvature="0" id="path4232" d="m 5.77,0 -8.65,5 0,-10 8.65,5 z" style="fill-rule:evenodd;stroke:#000000;stroke-width:1pt;marker-start:none" transform="scale(0.4,0.4)"/>
    </marker>
    <marker inkscape:stockid="TriangleOutM" orient="auto" refY="0" refX="0" id="marker4234" style="overflow:visible">
      <path inkscape:connector-curvature="0" id="path4236" d="m 5.77,0 -8.65,5 0,-10 8.65,5 z" style="fill-rule:evenodd;stroke:#000000;stroke-width:1pt;marker-start:none" transform="scale(0.4,0.4)"/>
    </marker>
    <marker inkscape:stockid="TriangleOutM" orient="auto" refY="0" refX="0" id="marker4238" style="overflow:visible">
      <path inkscape:connector-curvature="0" id="path4240" d="m 5.77,0 -8.65,5 0,-10 8.65,5 z" style="fill-rule:evenodd;stroke:#000000;stroke-width:1pt;marker-start:none" transform="scale(0.4,0.4)"/>
    </marker>
  </defs>
  <sodipodi:namedview pagecolor="#ffffff" bordercolor="#666666" borderopacity="1" objecttolerance="10" gridtolerance="10" guidetolerance="10" inkscape:pageopacity="0" inkscape:pageshadow="2" inkscape:window-width="1366" inkscape:window-height="706" id="namedview6" showgrid="true" inkscape:zoom="5.2414586" inkscape:cx="50.619191" inkscape:cy="41.252703" inkscape:window-x="-8" inkscape:window-y="-8" inkscape:window-maximized="1" inkscape:current-layer="svg2" inkscape:snap-grids="false">
    <inkscape:grid type="xygrid" id="grid3807"/>
  </sodipodi:namedview>
  <path style="color:#000000;fill:#000000;fill-opacity:1;fill-rule:nonzero;stroke:none;stroke-width:4;marker:none;visibility:visible;display:inline;overflow:visible;enable-background:accumulate" d="M 13.935406,44.774411 C 12.617105,44.531217 10.41299,44.13396 9.0373725,43.891619 5.2910769,43.231631 3.3930787,42.695113 2.5949756,42.070501 L 2.2981372,41.838192 2.2687113,39.607081 C 2.2525273,38.379969 2.1858883,37.122174 2.1206223,36.81198 2.0553583,36.501787 2.015922,36.23403 2.0329873,36.216963 c 0.017065,-0.01706 0.3263645,0.06089 0.6873308,0.173238 0.6521114,0.202961 0.6627346,0.202955 1.6630463,-8.84e-4 3.130339,-0.637923 4.9100701,-1.973464 4.9135241,-3.687193 0.00197,-0.980931 -0.522773,-1.562702 -2.1871526,-2.424821 C 6.6800285,30.054722 6.1630456,29.707348 5.9608872,29.505361 5.6177243,29.162491 5.2482423,28.312114 5.3836125,28.176744 c 0.058426,-0.05843 1.8659459,0.06138 4.539575,0.3009 2.7351605,0.245028 5.0459725,-0.08749 6.6542825,-0.957533 0.672359,-0.363724 1.097104,-0.49459 2.716333,-0.836918 1.055642,-0.223176 1.946669,-0.378459 1.980056,-0.345071 0.03339,0.03339 0.0607,2.038155 0.0607,4.45504 0,4.55322 -0.03881,5.130192 -0.487633,7.248369 -0.521079,2.459207 -1.45119,4.370823 -2.838301,5.833426 -0.564295,0.595006 -1.493217,1.378236 -1.607511,1.355388 -0.03784,-0.0076 -1.147412,-0.212729 -2.465712,-0.455922 l 0,0 z" id="path4083" inkscape:connector-curvature="0"/>
  <path style="color:#000000;fill:#000000;fill-opacity:1;fill-rule:nonzero;stroke:none;stroke-width:4;marker:none;visibility:visible;display:inline;overflow:visible;enable-background:accumulate" d="m 21.844033,36.307781 c 0.1747,-0.584019 0.290569,-3.596105 0.257395,-6.691166 l -0.03737,-3.486601 2.115853,-0.384842 c 1.811191,-0.32943 4.314437,-0.73427 6.074404,-0.98239 l 0.47846,-0.06745 -0.09277,0.712792 c -0.479379,3.683227 -2.359659,7.648728 -4.447198,9.379123 -0.854203,0.708061 -2.115188,1.331669 -3.119479,1.542708 -1.02866,0.216161 -1.299128,0.211283 -1.229293,-0.02217 z" id="path4085" inkscape:connector-curvature="0"/>
  <path style="color:#000000;fill:#000000;fill-opacity:1;fill-rule:nonzero;stroke:none;stroke-width:4;marker:none;visibility:visible;display:inline;overflow:visible;enable-background:accumulate" d="m 26.310758,39.582586 c -4.766744,-0.411071 -4.923768,-0.431465 -4.914111,-0.638241 0.0055,-0.117481 0.08756,-0.565321 0.182374,-0.995202 l 0.172397,-0.781601 0.46896,-0.02452 c 2.267301,-0.118543 4.414581,-1.38302 6.044488,-3.559444 1.412694,-1.886376 2.681184,-5.206973 3.039642,-7.957039 0.06915,-0.53054 0.175561,-0.999072 0.236463,-1.041183 0.0609,-0.04211 0.263139,-0.07728 0.449422,-0.07816 0.334912,-0.0016 0.338685,0.0039 0.33791,0.493418 -4.42e-4,0.272259 -0.164214,3.6605 -0.363964,7.529426 -0.19975,3.868926 -0.363534,7.139926 -0.363964,7.268891 -5.89e-4,0.158565 -0.05983,0.23024 -0.183157,0.221387 -0.100305,-0.0072 -2.398213,-0.204182 -5.10646,-0.437734 z" id="path4087" inkscape:connector-curvature="0"/>
  <path style="color:#000000;fill:#000000;fill-opacity:1;fill-rule:nonzero;stroke:none;stroke-width:4;marker:none;visibility:visible;display:inline;overflow:visible;enable-background:accumulate" d="M 27.862183,52.578945 C 27.570929,51.935619 26.55475,50.530992 25.800708,49.72944 24.07054,47.89026 21.246734,46.404392 17.868224,45.555421 l -0.444148,-0.111608 0.644715,-0.594878 c 1.182209,-1.090821 2.285506,-2.818938 2.864187,-4.486236 l 0.193159,-0.55653 0.468961,0.05564 c 0.257927,0.0306 2.591007,0.231938 5.18462,0.44741 4.624157,0.384167 4.71566,0.396089 4.71566,0.614393 0,0.122442 0.420553,2.350801 0.934559,4.951907 0.914272,4.626637 0.930362,4.733878 0.741254,4.94085 -0.271852,0.297532 -0.603618,0.987492 -0.686005,1.42665 l -0.06973,0.371687 -1.163482,0.0692 c -0.639913,0.03806 -1.633794,0.09761 -2.208626,0.13234 l -1.045144,0.06314 -0.136023,-0.300445 0,0 z" id="path4089" inkscape:connector-curvature="0"/>
  <path style="color:#000000;fill:#000000;fill-opacity:1;fill-rule:nonzero;stroke:none;stroke-width:4;marker:none;visibility:visible;display:inline;overflow:visible;enable-background:accumulate" d="m 29.315037,56.762513 c -0.146694,-0.842371 -0.585345,-2.369232 -0.799801,-2.783942 -0.0889,-0.171908 -0.134399,-0.339792 -0.101115,-0.373076 0.03328,-0.03329 0.925954,-0.111461 1.983713,-0.173726 l 1.923196,-0.113209 0.03008,2.05936 0.03008,2.059361 -1.474345,-1.08e-4 -1.474343,-1.07e-4 -0.117468,-0.674553 z" id="path4091" inkscape:connector-curvature="0"/>
  <path style="color:#000000;fill:#000000;fill-opacity:1;fill-rule:nonzero;stroke:none;stroke-width:4;marker:none;visibility:visible;display:inline;overflow:visible;enable-background:accumulate" d="m 28.067466,59.747998 c -0.241876,-0.07224 -0.229396,-0.09722 0.413642,-0.827961 l 0.663043,-0.753477 1.735152,0 1.735153,0 0.0646,0.390801 c 0.11463,0.693518 0.07916,1.040299 -0.115486,1.12897 -0.233671,0.10645 -4.165574,0.160379 -4.4961,0.06167 z" id="path4093" inkscape:connector-curvature="0"/>
  <path style="color:#000000;fill:#000000;fill-opacity:1;fill-rule:nonzero;stroke:none;stroke-width:4;marker:none;visibility:visible;display:inline;overflow:visible;enable-background:accumulate" d="m 44.938912,51.744832 c -3.875361,-0.327235 -6.919571,-0.694397 -9.421658,-1.136342 -0.797135,-0.140796 -1.462164,-0.26883 -1.477851,-0.284517 -0.05213,-0.05213 -1.81453,-9.098392 -1.81453,-9.313825 0,-0.210704 0.02578,-0.211455 5.7578,-0.167627 3.166786,0.02421 7.889303,0.07482 10.494467,0.112472 l 4.73668,0.06845 0.18253,1.017306 c 0.43965,2.450334 1.284182,5.354572 2.427882,8.349124 0.150548,0.394192 0.260155,0.727318 0.243575,0.740281 -0.01658,0.01297 -0.334981,0.08229 -0.707543,0.154045 -2.125472,0.409397 -2.578194,0.443557 -6.252808,0.471799 -2.03476,0.01564 -3.910614,0.01061 -4.168544,-0.01116 l 0,0 z" id="path4095" inkscape:connector-curvature="0"/>
  <path style="color:#000000;fill:#000000;fill-opacity:1;fill-rule:nonzero;stroke:none;stroke-width:4;marker:none;visibility:visible;display:inline;overflow:visible;enable-background:accumulate" d="m 37.174322,40.13916 -4.898741,-0.05364 0.381445,-7.503371 c 0.209792,-4.126854 0.397692,-7.666658 0.417553,-7.866233 l 0.03611,-0.362862 1.094242,-0.131404 c 3.425342,-0.411341 5.555206,-0.565106 8.493406,-0.613181 3.579981,-0.05858 4.356675,-0.140642 8.753923,-0.924941 3.323805,-0.592838 5.629199,-0.942433 6.970417,-1.057012 l 0.821836,-0.07021 -0.982348,1.141176 c -2.281444,2.650343 -3.675631,5.132293 -4.503671,8.017529 -0.687352,2.395019 -0.970012,5.117013 -0.794969,7.655615 0.05318,0.771238 0.09835,1.507767 0.100366,1.63673 l 0.0037,0.234481 -5.497264,-0.02452 c -3.023489,-0.01349 -7.701688,-0.04866 -10.395989,-0.07816 z" id="path4097" inkscape:connector-curvature="0"/>
  <path style="color:#000000;fill:#000000;fill-opacity:1;fill-rule:nonzero;stroke:none;stroke-width:4;marker:none;visibility:visible;display:inline;overflow:visible;enable-background:accumulate" d="m 68.080289,53.086152 c -0.234614,-0.654384 -0.80894,-1.461738 -1.2452,-1.750444 -0.787717,-0.521285 -1.587785,-0.447346 -2.473289,0.228567 l -0.472707,0.360828 -1.007741,-0.06157 c -2.107668,-0.12876 -2.071766,-0.119495 -2.151411,-0.555208 -0.08522,-0.466162 -0.457247,-1.126036 -0.832521,-1.476644 l -0.276499,-0.258331 -0.488964,0.289489 c -0.651773,0.385882 -1.780322,0.907002 -2.105767,0.972369 -0.249632,0.05014 -0.283766,-0.0056 -0.722,-1.179991 -3.347858,-8.971169 -3.577712,-15.79053 -0.730682,-21.678236 0.974891,-2.016115 2.318732,-3.903394 4.048636,-5.685918 l 0.682679,-0.703441 1.044925,4.42e-4 c 1.443382,5.89e-4 2.778735,0.238181 4.423792,0.787135 2.873824,0.958986 4.78533,2.095937 6.594656,3.92244 0.613456,0.619279 1.147576,1.125962 1.186926,1.125962 0.03937,0 0.304606,-0.143398 0.589447,-0.318661 0.284842,-0.175263 0.618805,-0.408442 0.630699,-0.390801 0.01194,0.01764 0.327243,0.417459 0.653012,0.888487 0.325769,0.471029 0.670476,0.715342 0.670476,0.7499 0,0.03456 -0.414978,0.626174 -0.667411,0.980349 l -0.458986,0.643955 0.211977,0.412308 c 0.872313,1.696731 1.427494,5.266953 1.228782,7.901858 -0.1485,1.969063 -0.48578,2.696022 -2.500746,5.389908 -1.200632,1.605182 -1.814456,2.752904 -2.034332,3.803793 -0.1927,0.920951 -0.187998,1.206182 0.04208,2.553231 0.102783,0.601832 0.158831,1.126109 0.124551,1.165059 -0.09805,0.111373 -3.66222,2.273985 -3.74773,2.273985 -0.04211,0 -0.139598,-0.17586 -0.216649,-0.3908 z" id="path4099" inkscape:connector-curvature="0" sodipodi:nodetypes="csscssscsssssccsssscssscssssssscc"/>
  <path style="color:#000000;fill:#000000;fill-opacity:1;fill-rule:nonzero;stroke:none;stroke-width:4;marker:none;visibility:visible;display:inline;overflow:visible;enable-background:accumulate" d="m 58.486668,57.605477 c 0,-0.02201 0.373756,-0.477115 0.830561,-1.011348 1.20806,-1.412831 1.480537,-1.975586 1.543999,-3.188903 l 0.05098,-0.974655 1.262296,0.06853 c 0.694279,0.03769 1.274647,0.07833 1.289709,0.09032 0.01508,0.01198 -0.0861,0.278456 -0.224828,0.592154 -0.138744,0.313701 -0.471823,1.337185 -0.740202,2.274412 -0.268365,0.937226 -0.529478,1.813278 -0.580236,1.946781 -0.09133,0.240229 -0.109503,0.242732 -1.762283,0.242732 -0.918488,0 -1.669994,-0.01801 -1.669994,-0.04002 z" id="path4101" inkscape:connector-curvature="0"/>
  <path style="color:#000000;fill:#000000;fill-opacity:1;fill-rule:nonzero;stroke:none;stroke-width:4;marker:none;visibility:visible;display:inline;overflow:visible;enable-background:accumulate" d="m 57.591172,60.082552 c -0.2011,-0.04643 -0.211446,-0.09252 -0.132613,-0.591162 0.04702,-0.297444 0.139127,-0.670317 0.204697,-0.828605 l 0.119215,-0.287798 1.863195,0 c 1.229592,0 1.863194,0.03714 1.863194,0.109219 0,0.198497 -0.715118,1.231337 -0.966681,1.396167 -0.175942,0.115284 -0.604303,0.174846 -1.489925,0.207169 -0.683637,0.02495 -1.341115,0.02271 -1.461082,-0.005 l 0,0 z" id="path4103" inkscape:connector-curvature="0"/>
  <path style="color:#000000;fill:#000000;fill-opacity:1;fill-rule:nonzero;stroke:none;stroke-width:4;marker:none;visibility:visible;display:inline;overflow:visible;enable-background:accumulate" d="m 66.485062,59.967759 c -0.33728,-0.05109 -0.348201,-0.144328 -0.08483,-0.724394 0.217945,-0.480011 0.103608,-0.445646 2.020994,-0.607402 0.649357,-0.05478 0.706776,-0.04375 0.656048,0.126081 -0.0306,0.102364 -0.10912,0.404577 -0.174498,0.671583 -0.08641,0.352806 -0.180246,0.501925 -0.343411,0.545699 -0.244872,0.06569 -1.614711,0.05806 -2.074301,-0.01157 z" id="path4105" inkscape:connector-curvature="0"/>
  <path style="color:#000000;fill:#000000;fill-opacity:1;fill-rule:nonzero;stroke:none;stroke-width:4;marker:none;visibility:visible;display:inline;overflow:visible;enable-background:accumulate" d="m 67.294886,57.620791 c 0.589742,-0.948807 1.105778,-2.173475 1.176948,-2.793136 l 0.07144,-0.622099 1.452402,-0.883273 c 0.79883,-0.485799 1.469852,-0.865823 1.491178,-0.844498 0.02133,0.02133 -0.108354,0.360378 -0.288188,0.753451 -0.4385,0.958506 -1.5059,3.628822 -1.669124,4.17568 -0.146039,0.489224 -0.101486,0.473942 -1.748518,0.599859 l -0.762264,0.05827 0.276131,-0.444258 0,0 z" id="path4107" inkscape:connector-curvature="0"/>
  <path style="color:#000000;fill:#000000;fill-opacity:1;fill-rule:nonzero;stroke:none;stroke-width:4;marker:none;visibility:visible;display:inline;overflow:visible;enable-background:accumulate" d="m 75.852454,26.029725 0.562152,-0.742521 c 0.964146,-1.273519 0.695944,-2.870083 -0.687985,-2.161213 -2.028569,1.039073 0.620795,3.720896 1.642301,6.301584 -5.183551,-5.091418 -3.816541,-7.735103 -1.069965,-8.436876 1.448319,-0.370058 2.404109,2.249522 1.639088,4.174279 -0.315054,0.792669 -1.203388,2.284655 -1.333348,2.284655 -0.32291,-0.495128 -0.507872,-0.839015 -0.752243,-1.419908 z" id="path4278" inkscape:connector-curvature="0" sodipodi:nodetypes="csscascc"/>
</svg>