<svg xmlns="http://www.w3.org/2000/svg" xmlns:xlink="http://www.w3.org/1999/xlink" version="1.1" id="Your_Icon" x="0px" y="0px" width="100px" height="100px" viewBox="0 0 100 100" enable-background="new 0 0 100 100" xml:space="preserve">
<path d="M99.905,30.956c-0.57-0.684-7.631-6.833-8.542-8.542c-0.912-1.708-3.588-2.96-3.873-3.074  c-0.285-0.115-0.399-0.741-0.912-1.196c-0.831-0.74-0.362-0.985-0.324-1.677c-0.528-0.175-3.823,2.082-6.463,3.139  c-2.64,1.057-12.146,1.232-13.731,2.64c-1.584,1.408-7.217,4.577-13.203,5.205c-5.985,0.63-41.719-1.157-41.719-1.157  c-1.48-0.072-1.319,0.051-3.483-0.576c-2.165-0.627-4.67,2.049-4.783,2.904c-0.115,0.854-2.108,14.065-2.108,14.065  s-0.925-0.285-0.74,1.65c0.301,3.137,0.038,0.513,0,11.673C0,63.093,2.587,64.553,2.587,64.553c0.284-0.797,1.798-4.438,0.987-7.214  c-4.744-16.218,0.414-23.87,1.78-25.741c-0.462,1.072-1.354,4.027-2.889,9.267c-2.002,6.833,2.798,19.077,2.343,19.531  c-0.456,0.455-1.823,5.467-1.538,7.175c0.285,1.708-0.911,14.577-0.798,15.374c0.115,0.797,6.093,0.797,5.866,0  c-0.227-0.797,0.626-12.47,1.31-13.323c0.683-0.855,0.855-1.368,4.043-6.89c3.189-5.524,6.434-5.069,9.851-2.564  c3.416,2.507,12.585,6.037,14.919,4.442c2.335-1.594,14.065-4.384,16.116-4.839c2.05-0.456,8.028,0.171,8.428,1.366  c0.399,1.196,4.214,10.079,3.473,11.617c-0.741,1.536,0.513,5.694,0.513,5.694s4.669,0.056,4.385,0c-0.285-0.056,0.797-1.424,0-3.36  c-0.798-1.936-1.538-4.669-1.196-5.58c0.343-0.912,1.48-7.459,1.48-7.459c0.57-0.513,4.005-2.668,4.897-6.265  c2.771-11.175,9.452-17.369,9.851-17.538c0.399-0.17,6.549-4.214,9.283-3.303C98.424,35.853,100.474,31.639,99.905,30.956z   M83.207,31.423l-0.54,0.022c-0.015-0.354-0.036-0.712-0.061-1.071l0.538-0.039C83.171,30.7,83.192,31.064,83.207,31.423z   M83.098,29.791l-0.538,0.046c-0.031-0.356-0.068-0.714-0.108-1.068l0.536-0.062C83.031,29.066,83.068,29.429,83.098,29.791z   M82.924,28.166l-0.536,0.069c-0.046-0.36-0.096-0.715-0.151-1.064l0.534-0.083C82.826,27.44,82.878,27.801,82.924,28.166z   M82.683,26.551l-0.534,0.089c-0.06-0.363-0.126-0.716-0.195-1.055l0.53-0.108C82.554,25.822,82.621,26.181,82.683,26.551z   M82.37,24.944l-0.528,0.116c-0.081-0.369-0.167-0.717-0.254-1.038l0.521-0.143C82.199,24.209,82.286,24.565,82.37,24.944z   M81.956,23.351l-0.517,0.159c-0.12-0.392-0.243-0.722-0.362-0.981l0.49-0.227C81.696,22.583,81.827,22.936,81.956,23.351z   M80.548,21.494c0.238-0.097,0.498,0.005,0.719,0.29l-0.429,0.33c-0.078-0.102-0.12-0.117-0.121-0.117  c-0.146,0.069-0.338,0.136-0.544,0.2l-0.158-0.517C80.206,21.622,80.383,21.56,80.548,21.494z M79.509,21.821l0.131,0.525  c-0.33,0.083-0.689,0.16-1.071,0.232l-0.101-0.531C78.839,21.977,79.187,21.902,79.509,21.821z M77.941,22.141l0.089,0.533  c-0.343,0.058-0.702,0.112-1.076,0.165l-0.076-0.535C77.248,22.252,77.603,22.197,77.941,22.141z M76.346,22.377l0.072,0.535  c-0.348,0.047-0.707,0.092-1.076,0.137l-0.065-0.536C75.643,22.469,76,22.423,76.346,22.377z M75.104,47.532l-1.08,0.037  l-0.019-0.54l1.08-0.037L75.104,47.532z M74.74,22.578l0.065,0.536l-1.012,0.121l-0.127-0.529L74.74,22.578z M73.484,47.588  l-1.081,0.04l-0.019-0.54l1.081-0.04L73.484,47.588z M73.131,22.771l0.063,0.536l-1.073,0.131l-0.068-0.536L73.131,22.771z   M71.864,47.648l-1.08,0.042l-0.021-0.54l1.08-0.042L71.864,47.648z M71.515,22.97l0.07,0.536c-0.36,0.046-0.72,0.095-1.069,0.145  l-0.076-0.535C70.79,23.066,71.153,23.017,71.515,22.97z M70.245,47.712l-1.079,0.045l-0.023-0.54l1.081-0.045L70.245,47.712z   M69.903,23.194l0.08,0.534c-0.381,0.057-0.74,0.116-1.06,0.175l-0.097-0.532C69.15,23.311,69.515,23.252,69.903,23.194z   M68.625,47.779l-1.08,0.047l-0.023-0.54l1.08-0.048L68.625,47.779z M65.449,25.162l0.283,0.461  c-0.293,0.179-0.608,0.364-0.943,0.552l-0.264-0.471C64.853,25.519,65.162,25.338,65.449,25.162z M65.389,47.928l-1.08,0.054  l-0.027-0.539l1.08-0.054L65.389,47.928z M64.054,25.961l0.258,0.476c-0.308,0.166-0.632,0.333-0.97,0.5l-0.239-0.485  C63.435,26.289,63.752,26.125,64.054,25.961z M63.209,49.76l0.03,1.082l-0.54,0.016l-0.03-1.084L63.209,49.76z M62.655,49.233  l-0.026-1.084l0.54-0.013l0.026,1.082L62.655,49.233z M63.253,51.384c0.011,0.369,0.021,0.731,0.034,1.081l-0.54,0.019  c-0.013-0.35-0.023-0.714-0.034-1.085L63.253,51.384z M63.305,53.006l0.039,1.082l-0.54,0.021l-0.039-1.084L63.305,53.006z   M63.365,54.629c0.016,0.384,0.032,0.745,0.049,1.082l-0.54,0.027c-0.017-0.339-0.033-0.702-0.049-1.086L63.365,54.629z   M63.441,56.252c0.022,0.406,0.043,0.767,0.068,1.078l-0.538,0.042c-0.024-0.315-0.048-0.68-0.07-1.09L63.441,56.252z   M62.691,48.066l-0.025-0.46l-0.052,0.001l-0.023-1.083l0.54-0.011l0.021,0.987l0.589-0.031l0.027,0.539L62.691,48.066z   M63.12,45.972l-0.54,0.012l-0.022-1.084l0.54-0.011L63.12,45.972z M63.086,44.349l-0.54,0.01l-0.02-1.083l0.54-0.01L63.086,44.349z   M63.056,42.724l-0.54,0.01l-0.019-1.084l0.54-0.009L63.056,42.724z M63.028,41.101l-0.54,0.007l-0.018-1.082l0.54-0.009  L63.028,41.101z M63.001,39.476l-0.54,0.01l-0.016-1.03l0.539-0.062L63.001,39.476z M62.975,37.853l-0.54,0.007l-0.016-1.083  l0.54-0.008L62.975,37.853z M62.952,36.228l-0.54,0.007l-0.016-1.083l0.54-0.008L62.952,36.228z M62.93,34.604l-0.54,0.007  l-0.015-1.085l0.54-0.006L62.93,34.604z M62.908,32.978l-0.54,0.007l-0.014-1.085l0.54-0.006L62.908,32.978z M62.888,31.352  l-0.54,0.006l-0.013-1.085l0.54-0.006L62.888,31.352z M62.87,29.726l-0.54,0.007l-0.013-1.088l0.54-0.005L62.87,29.726z   M62.62,26.687l0.151,0.316l0.07-0.001l0.001,0.151l0.01,0.021c-0.003,0.002-0.007,0.003-0.01,0.004l0.009,0.917l-0.54,0.005  l-0.007-0.678c-0.149,0.067-0.292,0.136-0.445,0.203l-0.215-0.496C61.979,26.985,62.305,26.836,62.62,26.687z M62.152,48.095  l-1.078,0.061l-0.032-0.539l1.08-0.061L62.152,48.095z M61.148,27.341l0.209,0.498c-0.328,0.137-0.667,0.272-1.012,0.403  l-0.192-0.506C60.494,27.608,60.826,27.476,61.148,27.341z M60.534,48.187l-1.078,0.064l-0.033-0.539l1.079-0.064L60.534,48.187z   M59.648,27.923l0.184,0.509c-0.338,0.122-0.682,0.239-1.031,0.352l-0.167-0.514C58.979,28.159,59.317,28.042,59.648,27.923z   M58.918,48.283l-1.079,0.068l-0.034-0.539l1.079-0.068L58.918,48.283z M58.124,28.43l0.156,0.517  c-0.343,0.105-0.694,0.204-1.048,0.298l-0.139-0.523C57.441,28.63,57.785,28.532,58.124,28.43z M56.573,28.855l0.129,0.525  c-0.35,0.087-0.705,0.167-1.065,0.241l-0.108-0.53C55.88,29.018,56.229,28.939,56.573,28.855z M55.683,48.494l-1.078,0.076  l-0.038-0.539l1.078-0.076L55.683,48.494z M55.002,29.193l0.099,0.531c-0.356,0.067-0.715,0.126-1.078,0.177l-0.076-0.535  C54.302,29.315,54.655,29.258,55.002,29.193z M54.068,48.608l-1.078,0.08l-0.04-0.539l1.078-0.08L54.068,48.608z M53.071,29.473  l0.345-0.039l0.063,0.536l-0.352,0.04c-0.214,0.023-0.461,0.043-0.74,0.061l-0.034-0.539C52.625,29.515,52.863,29.495,53.071,29.473  z M52.452,48.729l-1.077,0.084l-0.042-0.538l1.077-0.084L52.452,48.729z M51.818,29.561l0.025,0.539  c-0.326,0.015-0.688,0.027-1.086,0.036l-0.013-0.54C51.138,29.587,51.496,29.575,51.818,29.561z M50.838,48.857l-1.076,0.089  l-0.046-0.538l1.078-0.089L50.838,48.857z M50.207,29.606l0.008,0.54c-0.339,0.005-0.7,0.009-1.084,0.011l-0.003-0.54  C49.511,29.615,49.871,29.612,50.207,29.606z M49.224,48.992l-1.076,0.094l-0.049-0.538l1.078-0.094L49.224,48.992z M47.51,29.617  l1.079,0.003v0.54l-1.083-0.003L47.51,29.617z M47.61,49.135l-1.076,0.1l-0.051-0.538l1.077-0.1L47.61,49.135z M45.888,29.603  l1.082,0.011l-0.004,0.54l-1.085-0.011L45.888,29.603z M45.997,49.286l-1.074,0.105l-0.054-0.537l1.076-0.106L45.997,49.286z   M44.265,29.578l1.082,0.017l-0.008,0.54l-1.083-0.017L44.265,29.578z M44.386,49.445l-1.074,0.112l-0.057-0.537l1.076-0.112  L44.386,49.445z M42.643,29.546l1.082,0.022l-0.011,0.54l-1.083-0.022L42.643,29.546z M42.234,55.447l0.54-0.011l0.004,0.382  c0,0.273-0.006,0.515-0.02,0.722l-0.539-0.036c0.013-0.196,0.019-0.425,0.019-0.685L42.234,55.447z M42.218,54.911  c-0.012-0.334-0.032-0.693-0.059-1.073l0.539-0.038c0.026,0.386,0.046,0.752,0.06,1.089L42.218,54.911z M42.717,49.077l0.059,0.537  l-0.507,0.056c0.016,0.116,0.033,0.233,0.048,0.348l-0.536,0.07c-0.015-0.119-0.033-0.239-0.049-0.358l-0.028,0.003l-0.06-0.537  l0.015-0.002c-0.008-0.058-0.015-0.115-0.024-0.174l0.535-0.078c0.009,0.064,0.017,0.128,0.026,0.192L42.717,49.077z M42.507,51.636  l-0.537,0.057c-0.037-0.349-0.078-0.707-0.122-1.07l0.536-0.065C42.429,50.924,42.47,51.285,42.507,51.636z M40.617,43.74  c-0.079-0.308-0.161-0.605-0.245-0.889l-0.042-0.149l0.521-0.144l0.04,0.14c0.086,0.288,0.168,0.591,0.25,0.906L40.617,43.74z   M41.272,44.135c0.082,0.344,0.162,0.698,0.239,1.063l-0.529,0.112c-0.076-0.359-0.155-0.709-0.236-1.049L41.272,44.135z   M40.585,36.207c-0.034,0.353-0.063,0.71-0.086,1.069l-0.539-0.034c0.023-0.365,0.053-0.728,0.087-1.087L40.585,36.207z   M40.103,35.614c0.041-0.368,0.087-0.729,0.136-1.081l0.535,0.075c-0.048,0.346-0.093,0.703-0.134,1.066L40.103,35.614z   M40.469,37.811c-0.016,0.358-0.025,0.715-0.025,1.07l-0.54-0.001c0.001-0.362,0.01-0.728,0.026-1.093L40.469,37.811z   M40.448,39.414c0.008,0.361,0.026,0.716,0.054,1.064l-0.538,0.044c-0.03-0.358-0.048-0.725-0.056-1.096L40.448,39.414z   M40.556,41.007c0.044,0.369,0.102,0.72,0.171,1.042l-0.528,0.114c-0.073-0.339-0.134-0.706-0.179-1.092L40.556,41.007z   M41.104,49.257l0.062,0.537l-1.072,0.126l-0.064-0.536L41.104,49.257z M41.091,45.836l0.53-0.106  c0.07,0.35,0.137,0.707,0.202,1.067l-0.532,0.096C41.227,46.537,41.16,46.183,41.091,45.836z M41.916,47.332  c0.06,0.356,0.118,0.715,0.173,1.073l-0.534,0.081c-0.054-0.355-0.111-0.71-0.172-1.064L41.916,47.332z M41.008,30.049l0.014-0.54  l1.082,0.026l-0.013,0.54l-0.454-0.011c-0.044,0.176-0.11,0.454-0.195,0.838l-0.528-0.116c0.068-0.31,0.126-0.554,0.17-0.735  L41.008,30.049z M40.799,31.317l0.529,0.111c-0.066,0.316-0.137,0.67-0.209,1.056l-0.531-0.099  C40.661,31.995,40.732,31.636,40.799,31.317z M41.024,33.014c-0.059,0.337-0.117,0.693-0.173,1.063l-0.534-0.081  c0.056-0.374,0.116-0.733,0.175-1.074L41.024,33.014z M39.399,29.465l1.082,0.029l-0.015,0.54l-1.082-0.029L39.399,29.465z   M39.559,49.985l-1.07,0.134l-0.069-0.536l1.074-0.134L39.559,49.985z M37.777,29.419l1.081,0.032l-0.015,0.54l-1.083-0.032  L37.777,29.419z M36.575,35.518l0.132-0.524c0.507,0.128,0.86,0.238,1.08,0.337l-0.137,0.305l0.157,0.495  c-0.217,0.069-0.586,0.125-1.128,0.168l-0.044-0.538c0.246-0.02,0.438-0.041,0.586-0.062C37.048,35.644,36.831,35.583,36.575,35.518  z M37.883,49.651l0.07,0.536l-1.069,0.141l-0.073-0.535L37.883,49.651z M36.155,29.368l1.082,0.034l-0.017,0.54l-1.082-0.034  L36.155,29.368z M36.102,35.798l0.032,0.539c-0.327,0.019-0.691,0.035-1.087,0.049l-0.018-0.54  C35.419,35.833,35.779,35.817,36.102,35.798z M34.997,35.165l0.109-0.53c0.388,0.08,0.746,0.157,1.067,0.231l-0.121,0.527  C35.735,35.32,35.381,35.244,34.997,35.165z M36.274,49.867l0.074,0.535c-0.363,0.05-0.718,0.101-1.068,0.151l-0.077-0.535  C35.554,49.968,35.911,49.918,36.274,49.867z M34.533,29.315l1.082,0.036l-0.018,0.54l-1.082-0.036L34.533,29.315z M34.49,35.861  l0.014,0.54c-0.343,0.008-0.706,0.015-1.085,0.021l-0.007-0.54C33.788,35.876,34.149,35.87,34.49,35.861z M33.405,34.857  l0.099-0.531c0.373,0.069,0.73,0.137,1.068,0.204l-0.105,0.53C34.131,34.993,33.776,34.926,33.405,34.857z M34.668,50.098  l0.079,0.534c-0.363,0.054-0.718,0.108-1.066,0.162l-0.083-0.534C33.947,50.205,34.304,50.151,34.668,50.098z M33.992,29.296  l-0.018,0.54L32.93,29.8l-0.019-0.542L33.992,29.296z M32.873,35.888l0.005,0.54l-1.084,0.006l-0.001-0.54L32.873,35.888z   M31.807,34.57l0.093-0.532l1.069,0.189l-0.096,0.532L31.807,34.57z M33.064,50.344l0.083,0.534  c-0.362,0.057-0.716,0.115-1.063,0.173l-0.089-0.533C32.343,50.459,32.699,50.401,33.064,50.344z M31.286,29.2l1.082,0.039  l-0.019,0.54l-1.083-0.039L31.286,29.2z M31.253,35.894v0.54l-1.084-0.003l0.003-0.54L31.253,35.894z M30.207,34.297l0.089-0.533  l1.07,0.181l-0.092,0.533L30.207,34.297z M31.461,50.607l0.091,0.533c-0.362,0.061-0.716,0.124-1.061,0.186l-0.096-0.532  C30.742,50.732,31.097,50.669,31.461,50.607z M29.667,29.14l1.079,0.041l-0.02,0.54l-1.08-0.041L29.667,29.14z M29.632,35.888  l-0.004,0.54l-1.083-0.01l0.005-0.54L29.632,35.888z M28.604,34.034l0.087-0.533l1.071,0.175l-0.089,0.533L28.604,34.034z   M29.863,50.891l0.099,0.531c-0.363,0.068-0.716,0.134-1.06,0.201l-0.102-0.53C29.145,51.026,29.499,50.959,29.863,50.891z   M28.045,29.076l1.081,0.042l-0.02,0.54l-1.082-0.042L28.045,29.076z M28.374,51.728c-0.362,0.073-0.714,0.146-1.054,0.217  l-0.113-0.528c0.206-0.044,0.423-0.088,0.637-0.132c-0.069-0.137-0.136-0.292-0.2-0.484l0.512-0.172  c0.088,0.261,0.177,0.458,0.267,0.586l-0.133,0.093L28.374,51.728z M19.898,35.705l-0.015,0.54L18.8,36.215l0.016-0.54  L19.898,35.705z M18.963,32.581l0.077-0.535l1.074,0.154l-0.077,0.535L18.963,32.581z M20.567,40.473l0.037,0.539  c-0.364,0.025-0.723,0.052-1.076,0.081l-0.044-0.538C19.839,40.526,20.201,40.498,20.567,40.473z M20.424,36.26l0.014-0.54  l1.082,0.028l-0.014,0.54L20.424,36.26z M20.573,32.812l0.077-0.535l1.074,0.156l-0.078,0.535L20.573,32.812z M22.194,40.379  l0.024,0.539c-0.357,0.016-0.717,0.036-1.076,0.058l-0.033-0.539C21.471,40.415,21.834,40.396,22.194,40.379z M22.048,36.301  l0.013-0.54l1.082,0.025l-0.013,0.54L22.048,36.301z M22.181,33.048l0.079-0.535l1.073,0.16l-0.08,0.534L22.181,33.048z   M23.825,40.331l0.005,0.54c-0.349,0.003-0.709,0.012-1.075,0.025l-0.019-0.54C23.107,40.343,23.472,40.334,23.825,40.331z   M23.672,36.338l0.012-0.54l1.082,0.022l-0.011,0.54L23.672,36.338z M23.789,33.287l0.08-0.534l1.072,0.163L24.86,33.45  L23.789,33.287z M24.367,40.871l0.003-0.54c0.383,0.002,0.75,0.012,1.094,0.03L25.436,40.9C25.1,40.882,24.741,40.873,24.367,40.871  z M25.222,52.421c-0.363,0.088-0.71,0.175-1.042,0.262l-0.136-0.524c0.335-0.087,0.685-0.174,1.051-0.264L25.222,52.421z   M25.296,36.372l0.01-0.54l1.083,0.018l-0.005,0.319l0.505-0.008c0,0.001,0.006,0.406,0.024,1.087l-0.54,0.014  c-0.01-0.397-0.016-0.686-0.02-0.871L25.296,36.372z M26.484,40.458c-0.016-0.354-0.03-0.699-0.043-1.025l0.54-0.021  c0.013,0.344,0.028,0.706,0.044,1.082l-0.198,0.009c0.004,0.001,0.009,0.001,0.013,0.002l-0.094,0.532  c-0.235-0.041-0.498-0.074-0.783-0.099l0.048-0.538C26.184,40.413,26.329,40.437,26.484,40.458z M26.386,37.805l0.54-0.016  c0.01,0.324,0.021,0.688,0.035,1.082l-0.54,0.019C26.407,38.494,26.396,38.13,26.386,37.805z M27.051,41.033  c0.017,0.352,0.035,0.714,0.056,1.08l-0.539,0.031c-0.021-0.368-0.039-0.731-0.056-1.084L27.051,41.033z M27.139,42.653  c0.022,0.357,0.045,0.718,0.07,1.079l-0.539,0.037c-0.025-0.362-0.048-0.725-0.07-1.083L27.139,42.653z M26.921,36.398l0.008-0.54  l1.08,0.015l-0.006,0.54L26.921,36.398z M28.01,50.129l-0.524,0.134c-0.082-0.32-0.158-0.683-0.228-1.08l0.532-0.094  C27.859,49.471,27.932,49.821,28.01,50.129z M27.001,33.78l0.083-0.534l1.071,0.169l-0.086,0.534L27.001,33.78z M27.027,31.981  l-0.523-0.139c0.092-0.343,0.201-0.707,0.308-1.05l0.516,0.162C27.224,31.289,27.117,31.645,27.027,31.981z M26.678,51.532  l0.116,0.528c-0.362,0.08-0.712,0.159-1.049,0.238l-0.124-0.526C25.961,51.691,26.313,51.612,26.678,51.532z M26.708,44.312  l0.539-0.04c0.026,0.361,0.055,0.721,0.086,1.077l-0.538,0.046C26.765,45.037,26.736,44.675,26.708,44.312z M27.383,45.886  c0.034,0.365,0.071,0.724,0.11,1.073l-0.537,0.06c-0.039-0.352-0.076-0.714-0.111-1.083L27.383,45.886z M27.556,47.494  c0.046,0.372,0.096,0.728,0.147,1.066l-0.534,0.082c-0.053-0.343-0.102-0.705-0.149-1.082L27.556,47.494z M26.423,29.013  l1.082,0.043l-0.01,0.24l0.346,0.124c-0.001,0.002-0.156,0.435-0.347,1.02l-0.514-0.168c0.09-0.273,0.169-0.507,0.231-0.687  l-0.809-0.032L26.423,29.013z M26.898,32.496c-0.089,0.395-0.108,0.6-0.108,0.701c0,0.061,0.006,0.082,0.007,0.083  c-0.009-0.03-0.06-0.09-0.14-0.102l-0.079,0.535c-0.033-0.005-0.072-0.017-0.111-0.037l-0.003,0.019l-1.068-0.165l0.081-0.534  l0.78,0.12c0.008-0.184,0.042-0.42,0.114-0.74L26.898,32.496z M24.801,28.946l1.082,0.044l-0.022,0.54l-1.082-0.044L24.801,28.946z   M23.18,28.878l1.081,0.045l-0.022,0.54l-1.082-0.045L23.18,28.878z M21.558,28.809l1.082,0.046l-0.023,0.54l-1.082-0.046  L21.558,28.809z M19.936,28.739l1.082,0.047l-0.023,0.54l-1.083-0.048L19.936,28.739z M18.314,28.667l1.082,0.049l-0.024,0.539  l-1.082-0.049L18.314,28.667z M15.705,40.929l0.062,0.537c-0.668,0.077-1.071,0.13-1.073,0.13l-0.063-0.474l-0.226-0.02  c0.031-0.363,0.065-0.724,0.102-1.081l0.537,0.055c-0.032,0.311-0.061,0.626-0.089,0.941C15.141,40.996,15.391,40.966,15.705,40.929  z M15.523,52.885c0.091,0.347,0.192,0.688,0.303,1.02l-0.513,0.171c-0.114-0.342-0.218-0.694-0.312-1.054L15.523,52.885z   M14.869,52.491c-0.082-0.35-0.155-0.708-0.22-1.073l0.532-0.095c0.063,0.354,0.135,0.703,0.215,1.045L14.869,52.491z   M14.901,41.687c-0.027,0.356-0.052,0.714-0.073,1.075l-0.539-0.032c0.021-0.364,0.046-0.726,0.074-1.085L14.901,41.687z   M14.798,43.299c-0.017,0.357-0.032,0.716-0.042,1.075l-0.54-0.015c0.01-0.363,0.024-0.726,0.043-1.087L14.798,43.299z   M14.744,44.911c-0.005,0.268-0.007,0.535-0.007,0.802l0.001,0.271l-0.54,0.005l-0.001-0.276c0-0.27,0.003-0.541,0.007-0.812  L14.744,44.911z M14.744,46.523c0.007,0.359,0.018,0.718,0.035,1.074l-0.539,0.025c-0.017-0.362-0.029-0.724-0.036-1.089  L14.744,46.523z M14.809,48.134c0.023,0.359,0.05,0.715,0.085,1.068l-0.538,0.053c-0.035-0.359-0.063-0.722-0.086-1.087  L14.809,48.134z M14.949,49.734c0.041,0.358,0.089,0.712,0.143,1.06l-0.534,0.083c-0.055-0.356-0.104-0.717-0.146-1.082  L14.949,49.734z M15.594,56.291l0.027,0.54l-1.079,0.055l-0.027-0.54L15.594,56.291z M15.497,54.594l0.506-0.19  c0.126,0.336,0.263,0.662,0.412,0.974l-0.489,0.232C15.774,55.29,15.629,54.948,15.497,54.594z M16.304,41.405l-0.059-0.537  c0.324-0.036,0.687-0.075,1.078-0.115l0.055,0.537C16.988,41.33,16.627,41.37,16.304,41.405z M15.55,33.045  c0.062-0.323,0.123-0.625,0.183-0.919h0l0.074-0.535l1.082,0.15l-0.075,0.535l-0.545-0.076c-0.061,0.301-0.124,0.614-0.188,0.947  L15.55,33.045z M15.98,33.678c-0.063,0.341-0.127,0.696-0.191,1.062l-0.532-0.093c0.064-0.368,0.128-0.725,0.192-1.068L15.98,33.678  z M15.873,31.45c0.083-0.392,0.162-0.747,0.233-1.061l0.527,0.119c-0.07,0.312-0.148,0.665-0.231,1.054L15.873,31.45z   M17.426,54.631l0.288,0.458c-0.582,0.366-0.735,0.59-0.736,0.592l-0.461-0.283C16.548,55.347,16.736,55.066,17.426,54.631z   M17.177,36.167l0.017-0.54l1.082,0.033l-0.016,0.54L17.177,36.167z M17.352,32.352l0.075-0.535l1.076,0.153l-0.077,0.535  L17.352,32.352z M16.488,28.798l0.192,0.051l0.011-0.255l1.083,0.05l-0.025,0.539l-0.792-0.036c-0.044,0.175-0.113,0.45-0.203,0.836  l-0.526-0.124C16.387,29.179,16.488,28.798,16.488,28.798z M15.068,28.518l1.083,0.05l-0.025,0.539l-1.083-0.05L15.068,28.518z   M15.166,35.182l0.533,0.09c-0.017,0.099-0.032,0.205-0.049,0.305l1.002,0.033l-0.017,0.54l-1.071-0.035  c-0.012,0.075-0.024,0.145-0.035,0.221l-0.534-0.081C15.05,35.888,15.108,35.53,15.166,35.182z M14.913,36.79l0.535,0.079  c-0.052,0.349-0.102,0.705-0.149,1.067l-0.536-0.071C14.811,37.501,14.861,37.142,14.913,36.79z M14.694,38.404l0.536,0.068  c-0.044,0.352-0.086,0.709-0.126,1.07l-0.537-0.059C14.607,39.119,14.649,38.759,14.694,38.404z M13.444,28.442l1.084,0.052  l-0.026,0.539l-1.083-0.052L13.444,28.442z M14.002,56.914l-1.079,0.055l-0.027-0.54l1.079-0.055L14.002,56.914z M11.818,28.364  l1.084,0.052l-0.025,0.539l-1.085-0.052L11.818,28.364z M12.354,56.456l0.028,0.54l-1.079,0.056l-0.028-0.54L12.354,56.456z   M10.188,28.293l1.086,0.044l-0.026,0.539l-1.082-0.043L10.188,28.293z M10.763,57.08l-1.079,0.055l-0.027-0.54l1.079-0.055  L10.763,57.08z M8.635,28.089c0.388,0.089,0.696,0.14,1.029,0.171l-0.051,0.538c-0.358-0.034-0.686-0.089-1.098-0.183L8.635,28.089z   M9.144,57.164l-1.079,0.055l-0.027-0.54l1.079-0.055L9.144,57.164z M7.084,27.677c0.406,0.116,0.744,0.209,1.035,0.286  l-0.136,0.523c-0.295-0.077-0.637-0.171-1.048-0.289L7.084,27.677z M5.912,36.391c0.109-0.362,0.215-0.709,0.317-1.036l0.516,0.16  c-0.101,0.326-0.206,0.671-0.316,1.032L5.912,36.391z M6.273,37.066l-0.309,1.035l-0.518-0.154l0.31-1.037L6.273,37.066z   M6.39,34.838c0.118-0.377,0.229-0.724,0.331-1.034l0.513,0.169C7.133,34.281,7.023,34.624,6.906,35L6.39,34.838z M6.893,33.288  c0.131-0.382,0.242-0.682,0.328-0.885l0.103,0.044l0.143-0.251l0.346,0.196l-0.094,0.222c-0.083,0.195-0.188,0.482-0.314,0.849  L6.893,33.288z M6.997,31.929l-0.268,0.47L5.79,31.863l0.268-0.47L6.997,31.929z M6.376,27.823l0.235,0.487  c-0.252,0.121-0.552,0.331-0.824,0.574l-0.36-0.403C5.74,28.201,6.077,27.968,6.376,27.823z M4.894,29.059  c0.037-0.053,0.079-0.109,0.127-0.166l0.414,0.348c-0.022,0.026-0.042,0.051-0.061,0.076l-0.121,0.823l-0.535-0.079L4.894,29.059z   M4.555,31.161l0.083-0.564l0.535,0.078l-0.03,0.199l0.443,0.253l-0.267,0.47L4.555,31.161z M5.292,38.465l0.518,0.153l-0.306,1.037  l-0.518-0.152L5.292,38.465z M4.832,40.022l0.518,0.152l-0.305,1.037l-0.518-0.152L4.832,40.022z M4.375,41.583l0.521,0.141  c-0.086,0.317-0.157,0.663-0.211,1.028l-0.534-0.079C4.209,42.288,4.284,41.921,4.375,41.583z M4.084,43.221l0.537,0.055  c-0.034,0.341-0.056,0.696-0.066,1.058l-0.54-0.015C4.025,43.943,4.048,43.576,4.084,43.221z M4.008,44.87l0.54-0.002  c0.002,0.35,0.013,0.706,0.032,1.068l-0.539,0.029C4.021,45.594,4.01,45.228,4.008,44.87z M4.076,46.508l0.539-0.04  c0.026,0.353,0.06,0.708,0.1,1.067l-0.537,0.06C4.137,47.23,4.103,46.867,4.076,46.508z M4.244,48.137l0.536-0.069  c0.045,0.354,0.097,0.709,0.152,1.064l-0.534,0.083C4.342,48.857,4.29,48.496,4.244,48.137z M4.486,49.752l0.533-0.091  c0.06,0.355,0.124,0.708,0.192,1.059l-0.531,0.101C4.611,50.468,4.547,50.11,4.486,49.752z M4.785,51.355l0.53-0.108  c0.072,0.355,0.147,0.707,0.223,1.054L5.01,52.417C4.933,52.069,4.858,51.714,4.785,51.355z M5.13,52.947l0.527-0.12  c0.082,0.359,0.165,0.708,0.248,1.048L5.38,54.004C5.296,53.662,5.212,53.308,5.13,52.947z M5.511,54.531L6.035,54.4  c0.091,0.362,0.181,0.712,0.268,1.044l-0.523,0.137C5.693,55.247,5.603,54.895,5.511,54.531z M5.918,56.105l0.523-0.139l0.211,0.784  l0.845-0.044l0.027,0.54l-1.063,0.055L6.45,57.083L6.2,57.15L5.918,56.105z M6.871,60.255c-0.011-0.281-0.056-0.607-0.144-1.023  l0.529-0.112c0.094,0.448,0.143,0.801,0.156,1.114L6.871,60.255z M7.382,60.824c-0.064,0.41-0.22,0.76-0.491,1.102L6.467,61.59  c0.211-0.266,0.332-0.536,0.381-0.849L7.382,60.824z M6.863,57.531c0.103,0.386,0.194,0.736,0.271,1.054l-0.526,0.127  c-0.076-0.314-0.166-0.659-0.268-1.041L6.863,57.531z M6.349,62.125c0-0.079,0.005-0.153,0.014-0.222l0.535,0.074  c-0.006,0.045-0.009,0.096-0.009,0.149c-0.001,0.211,0.043,0.493,0.126,0.817l-0.524,0.133C6.397,62.705,6.349,62.385,6.349,62.125z   M6.652,63.614l0.513-0.171c0.107,0.322,0.242,0.66,0.39,0.975l-0.489,0.23C6.908,64.312,6.765,63.955,6.652,63.614z M7.974,66.087  c-0.216-0.231-0.436-0.547-0.655-0.941l0.473-0.262c0.194,0.349,0.393,0.638,0.576,0.833L7.974,66.087z M9.433,66.086  c-0.207,0.367-0.472,0.444-0.657,0.444c-0.088,0-0.18-0.018-0.273-0.054l0.194-0.505c0.138,0.053,0.208-0.052,0.265-0.152  l0.172-0.304l0.471,0.266L9.433,66.086z M9.872,65.311l-0.471-0.266l0.534-0.942l0.47,0.268L9.872,65.311z M10.672,63.903  l-0.47-0.268l0.537-0.938l0.469,0.268L10.672,63.903z M11.478,62.496l-0.469-0.268l0.543-0.94l0.464,0.277L11.478,62.496z   M12.293,61.105l-0.458-0.285c0.2-0.321,0.402-0.625,0.608-0.913l0.44,0.312C12.684,60.499,12.488,60.795,12.293,61.105z   M13.197,59.794l-0.429-0.329c0.231-0.301,0.466-0.585,0.704-0.848l0.401,0.361C13.645,59.233,13.42,59.504,13.197,59.794z   M14.236,58.594l-0.383-0.38c0.269-0.271,0.545-0.521,0.823-0.745l0.339,0.422C14.753,58.101,14.491,58.337,14.236,58.594z   M15.432,57.576l-0.311-0.441c0.31-0.219,0.632-0.414,0.957-0.578l0.245,0.481C16.02,57.192,15.721,57.373,15.432,57.576z   M16.795,56.823L16.7,56.592l-0.18,0.112c-0.121-0.194-0.236-0.394-0.346-0.599l0.477-0.255c0.07,0.131,0.146,0.256,0.22,0.382  c0.26-0.094,0.52-0.189,0.788-0.251l0.121,0.528C17.445,56.585,17.114,56.691,16.795,56.823z M18.943,40.6l0.048,0.538  c-0.372,0.033-0.732,0.066-1.076,0.099l-0.052-0.538C18.208,40.666,18.57,40.633,18.943,40.6z M17.905,54.351  c0.271-0.148,0.596-0.309,0.985-0.482l0.221,0.494c-0.374,0.167-0.686,0.322-0.947,0.463L17.905,54.351z M19.26,56.352l-0.07-0.001  c-0.297,0-0.603,0.021-0.902,0.063l-0.075-0.536c0.324-0.044,0.656-0.068,0.986-0.068l0.093,0.412L19.26,56.352z M19.392,53.654  c0.305-0.126,0.643-0.255,1.016-0.391l0.184,0.509c-0.365,0.131-0.695,0.259-0.994,0.382L19.392,53.654z M20.951,56.406  l-1.087-0.038l0.018-0.54l1.089,0.038L20.951,56.406z M20.922,53.084c0.321-0.11,0.665-0.222,1.033-0.336l0.159,0.517  c-0.363,0.112-0.702,0.222-1.018,0.329L20.922,53.084z M22.578,56.468l-1.084-0.042l0.02-0.54l1.086,0.042L22.578,56.468z   M22.476,52.593c0.329-0.096,0.676-0.193,1.042-0.295l0.144,0.521c-0.363,0.099-0.708,0.196-1.034,0.292L22.476,52.593z   M24.204,56.532l-1.084-0.044l0.021-0.54l1.085,0.044L24.204,56.532z M25.827,56.599l-1.083-0.045l0.023-0.54l1.083,0.045  L25.827,56.599z M27.45,56.666l-1.082-0.045l0.022-0.54l1.083,0.045L27.45,56.666z M29.073,56.734l-1.082-0.045l0.022-0.54  l1.083,0.045L29.073,56.734z M30.697,56.803l-1.082-0.045l0.022-0.54l1.083,0.045L30.697,56.803z M32.32,56.871l-1.082-0.046  l0.022-0.54l1.083,0.046L32.32,56.871z M33.942,56.94l-1.082-0.046l0.022-0.54l1.083,0.046L33.942,56.94z M34.482,56.964l0.022-0.54  l1.059,0.045l0.001,0.542L34.482,56.964z M37.191,57.079l-1.085-0.046l0.022-0.54l1.086,0.046L37.191,57.079z M38.812,57.149  l-1.079-0.046l0.022-0.54l1.081,0.046L38.812,57.149z M40.435,57.22l-1.081-0.046l0.022-0.54l1.083,0.046L40.435,57.22z   M42.057,57.289l-1.081-0.046l0.022-0.54l1.083,0.046L42.057,57.289z M42.024,52.23l0.538-0.053  c0.036,0.374,0.069,0.736,0.096,1.083l-0.538,0.042C42.093,52.957,42.06,52.599,42.024,52.23z M43.68,57.358l-1.082-0.048  l0.006-0.143l-0.458-0.122l0.461,0.064l0.015-0.34l1.083,0.048L43.68,57.358z M45.304,57.428l-1.083-0.046l0.023-0.54l1.082,0.046  L45.304,57.428z M46.927,57.498l-1.084-0.046l0.023-0.54l1.083,0.046L46.927,57.498z M48.552,57.567l-1.083-0.046l0.023-0.54  l1.083,0.046L48.552,57.567z M50.177,57.637l-1.083-0.045l0.021-0.54l1.085,0.045L50.177,57.637z M51.802,57.704l-1.085-0.045  l0.023-0.54l1.085,0.045L51.802,57.704z M53.435,57.771l-1.089-0.044l0.023-0.54l1.087,0.044L53.435,57.771z M54.134,57.785  l-0.033,0.007l-0.081-0.002l-0.023-0.542c0.321-0.058,0.664-0.11,1.04-0.145l0.049,0.538C54.733,57.676,54.413,57.723,54.134,57.785  z M56.679,57.588l-0.255-0.001c-0.285,0-0.554,0.006-0.808,0.019l-0.027-0.54c0.262-0.013,0.542-0.019,0.835-0.019l0.262,0.001  L56.679,57.588z M56.221,48.458l-0.036-0.539l1.078-0.072l0.036,0.539L56.221,48.458z M58.285,57.65  c-0.38-0.025-0.74-0.042-1.07-0.052l0.015-0.54c0.337,0.01,0.705,0.026,1.094,0.054L58.285,57.65z M59.88,57.818  c-0.359-0.052-0.715-0.092-1.061-0.124l0.049-0.538c0.355,0.032,0.721,0.074,1.09,0.128L59.88,57.818z M61.446,58.122  c-0.341-0.086-0.69-0.158-1.04-0.221l0.095-0.532c0.362,0.064,0.724,0.139,1.078,0.229L61.446,58.122z M63.402,58.856l0.209-0.377  l-0.492,0.135c-0.018-0.067-0.036-0.158-0.053-0.275l-0.127,0.287c-0.295-0.132-0.626-0.253-0.984-0.362l0.158-0.517  c0.334,0.102,0.637,0.218,0.923,0.34c-0.007-0.058-0.013-0.101-0.02-0.167l0.538-0.053c0.033,0.331,0.06,0.49,0.079,0.572  l0.031-0.055c0.361,0.198,0.675,0.421,0.933,0.66L64.23,59.44C64.004,59.231,63.725,59.034,63.402,58.856z M64.944,60.522  c-0.091-0.272-0.215-0.505-0.38-0.719l0.429-0.329c0.202,0.262,0.354,0.548,0.455,0.85l0.064,0.177l-0.507,0.19L64.944,60.522z   M65.434,61.788L65.202,61.2l0.502-0.198l0.232,0.588c0.055,0.138,0.112,0.269,0.171,0.393l-0.486,0.234  C65.557,62.083,65.493,61.939,65.434,61.788z M66.68,63.592c-0.285-0.21-0.548-0.504-0.782-0.874l0.456-0.289  c0.198,0.314,0.416,0.558,0.647,0.728L66.68,63.592z M65.927,47.902l-0.025-0.539l1.079-0.051l0.025,0.539L65.927,47.902z   M66.194,25.331l-0.293-0.454c0.33-0.214,0.625-0.416,0.878-0.604l0.321,0.435C66.838,24.901,66.535,25.11,66.194,25.331z   M67.413,23.764c0.208-0.118,0.476-0.2,0.873-0.286l0.116,0.528c-0.452,0.099-0.623,0.168-0.685,0.201  c-0.018,0.026-0.095,0.091-0.178,0.16l-0.344-0.417C67.274,23.885,67.347,23.823,67.413,23.764z M67.718,63.963  c-0.162,0-0.325-0.026-0.487-0.08l0.169-0.513c0.285,0.093,0.563,0.061,0.815-0.09l0.279,0.462  C68.253,63.889,67.991,63.963,67.718,63.963z M68.967,63.332l-0.414-0.348c0.186-0.22,0.335-0.509,0.445-0.859l0.515,0.163  C69.382,62.705,69.199,63.057,68.967,63.332z M69.775,61.007l-0.12,0.694l-0.27-0.02l-0.264-0.059l0.154-0.891l0.261-0.234  l0.361,0.401L69.775,61.007z M70.814,60.124c-0.232,0.176-0.409,0.316-0.513,0.411l-0.363-0.399c0.111-0.101,0.3-0.251,0.55-0.442  c0.094-0.072,0.198-0.152,0.312-0.242l0.334,0.426C71.015,59.97,70.909,60.052,70.814,60.124z M71.559,59.535l-0.344-0.416  c0.247-0.205,0.517-0.441,0.79-0.706l0.378,0.386C72.097,59.076,71.817,59.321,71.559,59.535z M72.771,58.404l-0.395-0.369  c0.246-0.263,0.472-0.534,0.671-0.805l0.435,0.319C73.271,57.837,73.032,58.125,72.771,58.404z M73.796,57.087l-0.456-0.289  c0.19-0.299,0.352-0.607,0.48-0.916l0.498,0.207C74.179,56.426,74.003,56.762,73.796,57.087z M74.583,55.293  c-0.023,0.089-0.048,0.174-0.072,0.26l-0.519-0.152c0.024-0.079,0.046-0.158,0.067-0.239c0.067-0.268,0.134-0.536,0.203-0.8  l0.524,0.137C74.716,54.761,74.649,55.026,74.583,55.293z M74.921,53.978L74.4,53.836c0.095-0.354,0.191-0.702,0.289-1.045  l0.519,0.148C75.112,53.28,75.016,53.626,74.921,53.978z M75.357,52.422l-0.519-0.152c0.105-0.353,0.208-0.699,0.312-1.039  l0.517,0.159C75.563,51.727,75.46,52.071,75.357,52.422z M75.828,50.877l-0.515-0.164c0.111-0.351,0.224-0.695,0.337-1.032  l0.513,0.172C76.05,50.188,75.939,50.529,75.828,50.877z M76.336,49.343l-0.511-0.177c0.121-0.348,0.242-0.689,0.362-1.022  l0.509,0.184C76.575,48.659,76.455,48.998,76.336,49.343z M76.879,47.823l-0.507-0.19c0.019-0.049,0.037-0.095,0.055-0.144  l-0.785,0.025l-0.017-0.54l1.012-0.032c0.041-0.106,0.083-0.218,0.124-0.322l0.502,0.197C77.137,47.144,77.008,47.48,76.879,47.823z   M77.464,46.317l-0.502-0.201c0.138-0.345,0.278-0.68,0.415-1.005l0.498,0.211C77.738,45.644,77.6,45.975,77.464,46.317z   M78.088,44.829l-0.496-0.215c0.149-0.343,0.297-0.674,0.442-0.993l0.492,0.226C78.381,44.162,78.235,44.489,78.088,44.829z   M78.753,43.358l-0.49-0.229c0.16-0.342,0.319-0.668,0.473-0.979l0.483,0.24C79.068,42.697,78.912,43.02,78.753,43.358z   M79.46,41.909l-0.481-0.246c0.174-0.341,0.343-0.662,0.506-0.963l0.475,0.257C79.799,41.254,79.633,41.572,79.46,41.909z   M80.218,40.485l-0.473-0.262c0.192-0.347,0.374-0.662,0.542-0.945l0.464,0.274C80.588,39.832,80.408,40.143,80.218,40.485z   M81.029,39.095l-0.46-0.284c0.239-0.387,0.438-0.694,0.589-0.919l0.45,0.301C81.459,38.413,81.264,38.715,81.029,39.095z   M81.841,37.814l-0.121-0.205l-0.244-0.175l0.091-0.086c0.207-0.122,0.392-0.356,0.549-0.693l0.49,0.228  C82.401,37.322,82.144,37.635,81.841,37.814z M82.809,36.345l-0.515-0.162c0.092-0.293,0.169-0.635,0.229-1.015l0.534,0.084  C82.993,35.66,82.909,36.027,82.809,36.345z M83.129,34.705l-0.536-0.06c0.037-0.336,0.063-0.691,0.079-1.06l0.54,0.024  C83.194,33.991,83.168,34.358,83.129,34.705z M83.23,33.062l-0.54-0.008l0.003-0.423c0.001-0.214-0.002-0.43-0.007-0.648l0.54-0.013  c0.005,0.223,0.008,0.444,0.007,0.662L83.23,33.062z"/>
</svg>