<svg xmlns="http://www.w3.org/2000/svg" xmlns:xlink="http://www.w3.org/1999/xlink" version="1.1" id="Layer_1" x="0px" y="0px" width="100px" height="100px" viewBox="0 0 100 100" enable-background="new 0 0 100 100" xml:space="preserve">
<path d="M57.7,51.5c2.8-1.3,5.4-2.9,7.6-4.4c5-3.4,8.7-6.9,9.2-7.3c0-0.2,0.1-0.4,0.1-0.5c0.1-0.6,0.3-1.4,0.6-2.3  c0.9-3.4,2.4-8.5,0.1-9.7c-1.1-0.6-3.7-0.1-6.4,0.9c-2.6,2.9-5.8,5.3-9.8,6C59.4,45,58.4,49.7,57.7,51.5z"/>
<path d="M85,35.9l2.4-6.5h-1.7l0.4-3.3h-1.5v-3.4h-2V19H80v-4.2h-3.6c0,0-2.1,6.8-6.7,12.4c2.4-0.8,4.7-1.2,5.9-0.5  c2.6,1.5,1.2,6.7,0.2,10.4c-0.2,0.9-0.5,1.7-0.6,2.2c-1.5,7.6-1.7,12-1.6,14.2l4-3.6l2.6-2.3l-2.2,0l6.1-5.8h-2.4l5-6H85z"/>
<path d="M73.1,55.3L73.1,55.3c0,0-0.2-1.1-0.2-3.6c0.1-2.1,0.3-5.6,1.3-10.9c-1.3,1.2-4.6,4.1-8.6,6.8c-2.4,1.6-5.2,3.3-8.3,4.7  c0,0,0,0.1,0,0.1c0.1,1.1,0.6,10.7,2,17.2l8.1-5.2c6.1-3.5,5.7-8.5,5.7-8.5V55.3z"/>
<path d="M58.6,34.3c-0.6,0.1-1.3,0.1-2,0.1h-7c0,0-1.8,0.2-3.7-0.9c-0.5,0.7-1.2,1.5-2,2.3c-2.1,2.1-4.3,3.6-6.5,4.3  c0,0.3-0.1,1-0.2,1.9c-0.1,3.2,0.4,9.6,6.1,11.6c1,0.3,2.2,0.5,3.5,0.6c3.3,0.1,6.8-0.9,10.1-2.4C57.5,50.6,58.8,46.3,58.6,34.3z"/>
<path d="M57,57.2c-0.2-2.2-0.3-3.8-0.3-4.5c-6.4,2.4-9.6,2.2-9.8,2.2c-3.4-0.1-6-1.3-7.8-3.5c-1-1.3-2.3-3.6-2.5-7.5  c-0.1-1.6,0.1-3,0.1-3.6c-0.9,0.2-1.8,0.4-2.7,0.4c-1.5,0-3-0.1-4.4-0.3c0.3,6.8,5.5,14.2,12.5,17.7C48.3,61.1,55.8,57.8,57,57.2z"/>
<path d="M38.7,60.8C31.9,56.6,28.7,51,27.2,47c-1.4-3.7-1.6-6.7-1.6-7.5c-1.7-0.5-3.2-1.1-4.4-1.9c-0.5,2.4-3.1,19.9,16.2,27.8  C37.7,63.7,38.2,62.1,38.7,60.8z"/>
<path d="M29.1,40.3c-1-0.2-2-0.4-3-0.6c0.1,1,0.3,3.8,1.6,7.2c1.5,3.9,4.6,9.3,11.2,13.4c0.5-1.2,0.9-2.2,1.1-2.6  C33.8,53.6,29.4,46.7,29.1,40.3z"/>
<path d="M31.3,19.3c-1.2,0.3-2.4,0.4-3.3,0.4c-1,0-1.7-0.1-2-0.2c-0.1,1.5-0.6,2.9-1.6,4L21.3,37c2.8,1.8,7.8,3,12.8,3  c4,0,7.3-2.5,9.4-4.7c0.7-0.8,1.4-1.5,1.9-2.2c-1.9-1.3-3.8-3.9-4.4-9.1l0,0c0,0,0,0,0,0c-0.1-0.5-0.1-1.1-0.1-1.7  c-0.2-1.9-0.9-5.1-2.6-7.9C36.2,17.5,33.5,18.8,31.3,19.3z"/>
<path d="M24.5,14c0.3,0.5,0.9,1.6,1.3,3c0.2,0.7,0.3,1.3,0.3,1.9c0.5,0.1,2.7,0.4,5.2-0.2c2.9-0.7,5.1-2.4,6.6-4.9  c-0.6-0.9-1.4-1.8-2.4-2.6c-1.1-0.8-2.2-1.4-3.2-1.7c-0.5-0.2-1-0.3-1.6-0.4C29.3,12.5,25.7,13.7,24.5,14z"/>
<path d="M23.6,22.6c0.3,0,0.6,0,0.9-0.1c2.2-3.6-0.2-7.8-0.7-8.4c-0.6,0.1-1.3,0.2-2,0.2c-0.3,1.4-1,4.6-1,4.7  c-0.1,0.2-0.1,0.5-0.1,0.7C20.7,21.3,22,22.6,23.6,22.6z"/>
<path d="M21.9,13.7c1.7-0.1,3.5-0.6,3.9-0.8c1.4-0.6,3.3-1.8,4.3-3.9c-1.6-0.1-4.9,0.1-9.5,2.3c0,0,0,0,0,0  c-0.8,0.5-1.8,1.4-2.1,2.7c0,0,0.6-0.4,1.4-0.4L21.9,13.7C21.9,13.7,21.9,13.7,21.9,13.7z"/>
<g>
	<path d="M19.9,11c4.8-2.5,8.3-2.7,10-2.6c0.2-0.4,0.4-0.8,0.4-1.3c0-1.3-1.1-2.4-2.4-2.4c-0.6,0-1.2,0.2-1.6,0.6   c-0.4-0.5-1-0.8-1.7-0.8c-1.3,0-2.4,1.1-2.4,2.4c0,0,0,0,0,0c-0.3-0.1-0.6-0.2-1-0.2C20,6.8,19,7.8,19,9.1   C19,9.9,19.4,10.6,19.9,11z"/>
</g>
<path d="M59.9,86.3c-0.4-0.2-2.6-1.7-2.6-1.7s0.1-2-0.5-2.5h0.6c1.5,0,1.4-1.5,1.4-1.5c-2,0-2.1-1.3-2-1.7l0.5-7.2V71l1.5-1  c-0.8-3.7-1.4-8.5-1.7-12.2c-0.8,0.4-2.5,1.1-4.7,1.6C51.1,59.7,49.6,60,48,60c-2,0-4.1-0.3-6.1-1.4c-0.5-0.2-0.9-0.5-1.3-0.7  c-0.5,1.1-1.8,4.1-2.7,7.8l3.3,9.6c0,0,0.4,1.9,3.1,2.5c2.3,0.3,3.8,0,4.8-0.2c1.1-0.3,1.3-2,1.3-2.9v-3.6c3.9,0,4,3.6,4,3.6l0,0  c0,0.1,0,0.3,0,0.4v8.4c0,0,0.1,0.8-2.3,0.9H48l0.9-6.2c-1.6,0.4-3,0.3-3.1,0.3L44.3,85c-0.8,0.3-1.7,0.8-1.9,1.8  c0,0,0.1-0.3,1.5-0.4l-0.4,1.9c0.5,0,1.1-0.1,1.8-0.2c1-0.2,1.9-0.5,2.2-0.7l0.2-1.1h2.7l-0.1,0.8L47.9,88c-0.3,0.1-2.5,1-4.4,1  c0,0,0,0-0.1,0l0,0l0,0c-0.3,0-0.6,0-0.9-0.1l-5.6-0.5L34.5,89l3.8,0.8l-2,0.3h-2.8l-1.1,0.8l0,0c-0.9,0.6,8.7,0.3,8.7,0.3  c0,1.4-0.7,1.4-0.7,1.4l-3.2,1.5l0.1,1.2l6.7-2.8l2.8-3.1l2.3,0.5l8.1-3.6l1.4,1.1h1.8C60.3,87.4,60.3,86.5,59.9,86.3z"/>
</svg>